<svg width="20" height="21" viewBox="0 0 20 21" fill="none" xmlns="http://www.w3.org/2000/svg">
<path d="M9.99998 19.6667C15.0542 19.6667 19.1666 15.5546 19.1666 10.5C19.1666 9.62758 19.0449 8.76783 18.8037 7.94445C18.6849 7.53957 18.2621 7.30701 17.8561 7.4258C17.4509 7.54423 17.2191 7.96851 17.3375 8.37339C17.5372 9.05746 17.6389 9.77323 17.6389 10.5C17.6389 14.712 14.212 18.1389 9.99998 18.1389C5.78796 18.1389 2.36109 14.712 2.36109 10.5C2.36109 6.28799 5.78796 2.86112 9.99998 2.86112C11.5307 2.86112 13.0035 3.30871 14.259 4.15522C14.6085 4.39114 15.0837 4.29845 15.3192 3.94895C15.555 3.59909 15.463 3.12427 15.1131 2.88854C13.6044 1.8712 11.8364 1.33334 9.99998 1.33334C4.94574 1.33334 0.833313 5.4454 0.833313 10.5C0.833313 15.5546 4.94574 19.6667 9.99998 19.6667Z" fill="#FF5A30"/>
<path d="M18.5773 2.41066L9.99983 10.9877L7.25569 8.244C6.93017 7.91868 6.40282 7.91868 6.0773 8.244C5.75198 8.56952 5.75198 9.09686 6.0773 9.42238L9.41063 12.7557C9.5736 12.9187 9.78641 12.9999 9.99983 12.9999C10.2132 12.9999 10.4261 12.9187 10.589 12.7557L19.7557 3.58905C20.081 3.26353 20.081 2.73619 19.7557 2.41066C19.4302 2.08535 18.9028 2.08535 18.5773 2.41066Z" fill="#FF5A30"/>
</svg>
